<svg width="88" height="72" viewBox="0 0 88 72" fill="none" xmlns="http://www.w3.org/2000/svg">
<path d="M24.0429 0C17.6663 0 11.5509 2.50203 7.04199 6.95567C2.53308 11.4093 0 17.4497 0 23.7481C0 25.907 0.393429 28.066 0.961714 30.2249H18.7971L24.3489 15.6738C25.6603 12.2195 30.8186 11.8741 32.4797 15.6738L41.5286 38.8606L44.1077 32.7292C44.676 31.3043 46.206 30.2249 48.0857 30.2249H86.4669C87.0351 28.066 87.4286 25.907 87.4286 23.7481C87.4286 17.4497 84.8955 11.4093 80.3866 6.95567C75.8777 2.50203 69.7623 0 63.3857 0C55.2549 0 48.0857 4.01559 43.7143 10.1037C39.3429 4.01559 32.1737 0 24.0429 0ZM4.37143 36.7016C3.21205 36.7016 2.10016 37.1566 1.28036 37.9663C0.46056 38.7761 0 39.8743 0 41.0195C0 42.1647 0.46056 43.2629 1.28036 44.0727C2.10016 44.8824 3.21205 45.3373 4.37143 45.3373H15.0377L39.3429 69.0855C43.7143 72.9715 43.7143 72.9715 48.0857 69.0855L72.3909 45.3373H83.0571C84.2165 45.3373 85.3284 44.8824 86.1482 44.0727C86.968 43.2629 87.4286 42.1647 87.4286 41.0195C87.4286 39.8743 86.968 38.7761 86.1482 37.9663C85.3284 37.1566 84.2165 36.7016 83.0571 36.7016H49.8343L45.7689 46.6327C44.0203 50.9937 38.9931 50.3892 37.3757 46.7622L28.4143 23.7481L24.2177 33.8087C23.562 35.4495 22.0757 36.7016 20.1086 36.7016H4.37143Z" fill="#EC5863"/>
</svg>
