<svg width="65" height="72" viewBox="0 0 65 72" fill="none" xmlns="http://www.w3.org/2000/svg">
<path d="M64.2857 25.2H42.8571V72H35.7143V50.4H28.5714V72H21.4286V25.2H0V18H64.2857V25.2ZM32.1429 0C34.0373 0 35.8541 0.758569 37.1936 2.10883C38.5332 3.45909 39.2857 5.29044 39.2857 7.2C39.2857 9.10956 38.5332 10.9409 37.1936 12.2912C35.8541 13.6414 34.0373 14.4 32.1429 14.4C30.2485 14.4 28.4316 13.6414 27.0921 12.2912C25.7526 10.9409 25 9.10956 25 7.2C25 3.204 28.1786 0 32.1429 0Z" fill="#EC5863"/>
</svg>
